<svg width="234" height="337" viewBox="0 0 234 337" fill="none" xmlns="http://www.w3.org/2000/svg">
<line x1="82.5997" y1="30.2724" x2="113.6" y2="175.272" stroke="black" stroke-width="3"/>
<path d="M139.633 26.586L108.612 207.836" stroke="black" stroke-width="3"/>
<path d="M63.528 65.035L85.2939 127.26L111.848 187.377" stroke="black" stroke-width="3"/>
<path d="M161.633 61.586L139.133 133.586L125.633 168.586L118.633 184.086L110.133 198.586" stroke="black" stroke-width="3"/>
<g filter="url(#filter0_d_1_5)">
<path d="M108.633 207.086L113.633 325.086" stroke="black" stroke-width="3"/>
</g>
<line x1="85.278" y1="40.5549" x2="63.278" y2="66.5549" stroke="black" stroke-width="3"/>
<path d="M138.194 38.5254L162.133 63.086" stroke="black" stroke-width="3"/>
<path d="M73.5783 55.0729L61.1329 47.586" stroke="black" stroke-width="3"/>
<path d="M163.331 45.586L153.133 53.586" stroke="black" stroke-width="2"/>
<path d="M61.1329 48.586C80.8581 34.3319 80.6327 12.086 110.633 13.086C140.633 14.086 145.044 24.1665 163.123 47.0861" stroke="black" stroke-width="3"/>
<path d="M113.81 322.586C117.114 340.291 146.826 330.52 189.133 324.586" stroke="black" stroke-width="3"/>
<path d="M43.1329 322.586C79.3617 331.674 97.427 341.956 114.133 322.586" stroke="black" stroke-width="3"/>
<path d="M189.633 127.591C174.586 171.012 174.819 215.245 187.633 322.591" stroke="black" stroke-width="2"/>
<path d="M39.6326 130.576C46.6329 168.086 49.8518 168.205 50.6329 206.086L43.6326 324.576" stroke="black" stroke-width="2"/>
<line x1="77.4682" y1="32.5281" x2="18.4682" y2="53.5281" stroke="black" stroke-width="2"/>
<path d="M207.133 54.086L154.133 35.086" stroke="black" stroke-width="2"/>
<path d="M19.1329 52.586C5.71326 146.673 5.05853 202.545 6.13287 306.586" stroke="black" stroke-width="3"/>
<path d="M206.133 53.586C223.055 150.855 226.495 206.433 219.133 307.086" stroke="black" stroke-width="3"/>
<line x1="41.1693" y1="138.604" x2="38.1327" y2="304.604" stroke="black" stroke-width="2"/>
<line x1="186.169" y1="138.58" x2="187.133" y2="306.58" stroke="black" stroke-width="2"/>
<path d="M186.133 306.586C198.835 314.658 206.056 314.514 219.133 306.586" stroke="black" stroke-width="2"/>
<path d="M5.04245 305.679C18.3937 310.506 25.7468 309.883 38.6771 303.305" stroke="black" stroke-width="2"/>
<path d="M200.601 82.0135C200.287 83.6572 199.786 85.1986 199.451 86.8439C199.036 88.8867 198.787 90.9972 198.339 93.0383C197.893 95.0676 197.431 97.1038 196.96 99.1314C196.489 101.161 196.007 103.186 195.517 105.213C195.028 107.236 194.531 109.262 194.03 111.284C193.69 112.657 193.348 114.032 193.005 115.405C192.854 116.008 192.704 116.608 192.554 117.211C192.441 117.66 192.329 118.109 192.217 118.559C192.201 118.621 192.177 118.679 192.15 118.72C192.122 118.761 192.093 118.781 192.069 118.776C192.045 118.771 192.026 118.741 192.017 118.693C192.008 118.644 192.009 118.581 192.019 118.518C192.092 118.057 192.165 117.595 192.238 117.134C192.32 116.622 192.401 116.11 192.483 115.598C192.599 115.538 192.697 115.444 192.772 115.245C192.811 115.144 192.849 114.992 192.853 114.876C192.857 114.771 192.843 114.689 192.829 114.611C192.815 114.529 192.801 114.452 192.81 114.357C192.825 114.197 192.813 114.039 192.8 113.873C192.795 113.813 192.79 113.752 192.787 113.689C192.865 113.2 192.943 112.711 193.022 112.222C193.07 112.037 193.114 111.867 193.14 111.72C193.162 111.588 193.166 111.464 193.164 111.339C193.176 111.264 193.188 111.188 193.2 111.112C193.279 110.624 193.358 110.136 193.437 109.647C193.541 109.275 193.647 108.884 193.763 108.371C193.813 108.15 193.872 107.934 193.929 107.726C194.012 107.419 194.091 107.131 194.129 106.871C194.154 106.698 194.205 106.52 194.255 106.343C194.323 106.106 194.391 105.869 194.397 105.643C194.4 105.501 194.397 105.368 194.393 105.246C194.387 105.052 194.382 104.882 194.41 104.734C194.461 104.457 194.478 104.211 194.493 103.995C194.51 103.734 194.525 103.516 194.594 103.336C194.604 103.308 194.617 103.277 194.631 103.242C194.707 103.057 194.828 102.762 194.885 102.314C194.906 102.154 194.906 102.001 194.906 101.85C194.906 101.631 194.906 101.419 194.969 101.204C194.978 101.171 194.997 101.14 195.014 101.111C195.035 101.074 195.054 101.042 195.048 101.019C195.03 100.953 195.017 100.851 195.002 100.741C194.991 100.659 194.979 100.573 194.965 100.493C195.063 99.9226 195.163 99.3523 195.263 98.7821C195.309 98.5208 195.355 98.2595 195.401 97.9982C195.473 97.8743 195.541 97.7466 195.601 97.6092C195.679 97.4295 195.741 97.1886 195.82 96.8781C195.879 96.6497 195.947 96.3834 196.039 96.076C196.209 95.507 196.318 94.9093 196.368 94.5221C196.378 94.4403 196.388 94.3579 196.399 94.2697C196.44 93.9355 196.491 93.5183 196.614 92.7311C196.73 91.9865 196.848 91.3573 196.937 90.8847C196.983 90.6434 197.021 90.4429 197.047 90.2886C197.091 90.0247 197.148 89.7011 197.206 89.3763C197.296 88.868 197.387 88.3566 197.429 88.0651C197.443 87.9613 197.458 87.8522 197.474 87.7343C197.517 87.4079 197.57 87.0134 197.663 86.4741C197.762 85.908 197.844 85.5613 197.941 85.2037C197.98 85.0584 198.045 84.9362 198.112 84.8103C198.206 84.6317 198.305 84.4454 198.342 84.1738C198.35 84.1103 198.355 84.0417 198.36 83.9699C198.368 83.8381 198.377 83.6954 198.414 83.555C198.427 83.5061 198.447 83.4645 198.465 83.4238C198.486 83.379 198.506 83.3351 198.518 83.2829C198.56 83.0881 198.596 82.8975 198.628 82.7282C198.669 82.5098 198.704 82.3267 198.736 82.2152C198.793 82.0165 198.823 81.7927 198.854 81.5661C198.877 81.393 198.901 81.2181 198.937 81.0514C199.04 80.5752 199.146 79.9131 199.237 79.2272C199.272 78.9677 199.34 78.7557 199.427 78.4839C199.481 78.3149 199.542 78.1229 199.608 77.8819C199.645 77.7453 199.648 77.6237 199.65 77.5112C199.652 77.4075 199.655 77.3114 199.683 77.2182C199.709 77.1359 199.755 77.09 199.799 77.0465C199.848 76.998 199.894 76.9523 199.905 76.8626C199.911 76.8148 199.905 76.7541 199.897 76.6818C199.894 76.6533 199.891 76.6228 199.889 76.5906C199.896 76.5937 199.902 76.5953 199.907 76.5964C199.941 76.6034 199.978 76.517 200.014 76.4322C200.028 76.3983 200.042 76.3646 200.056 76.3373C200.107 76.237 200.153 76.0366 200.182 75.8825C200.195 75.8173 200.218 75.7605 200.244 75.6943C200.268 75.6354 200.294 75.5691 200.319 75.4827C200.334 75.4335 200.351 75.3971 200.366 75.3669C200.377 75.3451 200.386 75.3266 200.391 75.3087C200.395 75.2932 200.388 75.2785 200.38 75.2619C200.374 75.25 200.368 75.2371 200.365 75.2223C200.358 75.1867 200.362 75.1438 200.373 75.1151C200.377 75.1018 200.383 75.0918 200.389 75.0819C200.396 75.0703 200.403 75.0588 200.408 75.042C200.432 74.965 200.436 74.8864 200.44 74.8047C200.445 74.7149 200.45 74.6213 200.481 74.5221C200.49 74.4909 200.504 74.4584 200.518 74.427C200.532 74.3941 200.546 74.3621 200.554 74.3341C200.585 74.2203 200.582 74.1069 200.58 74.0025C200.578 73.9332 200.577 73.8677 200.585 73.8089C200.601 73.7012 200.583 73.6381 200.57 73.5915C200.563 73.5674 200.557 73.5476 200.558 73.5284C200.563 73.5114 200.567 73.4942 200.572 73.4775C200.577 73.4623 200.583 73.4466 200.585 73.4313C200.585 73.4302 200.585 73.429 200.585 73.4279C200.612 73.3341 200.641 73.2426 200.67 73.1517C200.735 72.9475 200.8 72.7459 200.831 72.5253C200.838 72.4777 200.836 72.4274 200.833 72.3762C200.83 72.3134 200.827 72.2492 200.841 72.1873C200.873 72.0397 200.924 71.8942 200.974 71.7509C201.049 71.5354 201.122 71.3247 201.13 71.1192C201.133 71.0513 201.128 70.9836 201.124 70.9158C201.121 70.8779 201.118 70.8399 201.117 70.8018C201.132 70.8128 201.146 70.82 201.159 70.8267C201.187 70.8405 201.211 70.8523 201.225 70.8915C201.258 70.9842 201.308 71.0916 201.361 71.0915C201.375 71.0914 201.39 71.0968 201.404 71.1024C201.441 71.1165 201.479 71.1308 201.513 71.0578C201.535 71.0086 201.59 70.8816 201.577 70.7913C201.575 70.7716 201.564 70.7579 201.553 70.7426C201.532 70.7151 201.507 70.6823 201.516 70.601C201.518 70.5873 201.52 70.5725 201.522 70.5571C201.53 70.496 201.54 70.4276 201.524 70.3982C201.507 70.3644 201.479 70.3652 201.446 70.366C201.403 70.3672 201.352 70.3685 201.307 70.294C201.298 70.2793 201.299 70.2548 201.299 70.2363C201.3 70.2233 201.3 70.2133 201.297 70.2116C201.293 70.2098 201.284 70.2121 201.272 70.2151C201.231 70.2256 201.16 70.2438 201.184 70.1123C201.191 70.0767 201.202 70.0368 201.212 70.001C201.227 69.9483 201.24 69.9045 201.23 69.8964C201.227 69.8933 201.223 69.8909 201.218 69.8886C201.228 69.8462 201.238 69.8039 201.248 69.7615C201.272 69.7094 201.286 69.6324 201.304 69.5362C201.309 69.5129 201.313 69.4883 201.318 69.4628C201.338 69.3792 201.358 69.2956 201.378 69.212C201.397 69.1464 201.42 69.0772 201.449 69.005C201.507 68.8605 201.579 68.7392 201.65 68.6206C201.68 68.5707 201.709 68.5212 201.737 68.4706C201.735 68.4921 201.734 68.5116 201.734 68.5269C201.737 68.6318 201.775 68.6813 201.81 68.7269C201.833 68.7572 201.855 68.7858 201.865 68.8276C201.882 68.9043 201.92 68.9048 201.948 68.9051C201.963 68.9053 201.975 68.9056 201.98 68.9163C201.983 68.925 201.983 68.943 201.982 68.9615C201.981 68.9776 201.98 68.9943 201.982 69.0056C202.01 69.1423 202.049 69.1108 202.106 69.065C202.137 69.0398 202.174 69.0103 202.217 69.0022C202.262 68.9968 202.273 69.004 202.277 69.0733C202.308 69.0262 202.339 68.9791 202.371 68.932C202.373 68.9116 202.363 68.8936 202.346 68.8678C202.315 68.8216 202.326 68.6938 202.335 68.594C202.339 68.5478 202.343 68.5076 202.341 68.4842C202.334 68.3598 202.283 68.3852 202.238 68.4075C202.213 68.4199 202.191 68.4312 202.178 68.4162C202.172 68.4098 202.165 68.4157 202.156 68.4217C202.15 68.4264 202.144 68.4311 202.139 68.4303C202.1 68.424 202.085 68.3484 202.072 68.2782C202.064 68.238 202.057 68.1997 202.046 68.177C202.042 68.1701 202.038 68.1644 202.035 68.159C202.029 68.1512 202.024 68.1435 202.02 68.1325C202.012 68.1074 202.013 68.0592 202.014 68.0065C202.015 67.9794 202.016 67.9512 202.015 67.9242C202.014 67.8893 202.001 67.8742 201.988 67.8583C201.979 67.847 201.969 67.8352 201.963 67.816C201.952 67.7813 201.959 67.7168 201.965 67.657C201.967 67.631 201.97 67.6058 201.971 67.5843C201.971 67.5756 201.97 67.571 201.966 67.5693C201.974 67.4707 201.98 67.3763 201.986 67.2844C202.017 66.8236 202.043 66.4248 202.199 65.8529C202.228 65.7448 202.251 65.6268 202.269 65.5067C202.362 65.1293 202.455 64.7519 202.548 64.3748C202.598 64.3066 202.646 64.2204 202.691 64.1161C202.775 63.9201 202.827 63.7113 202.888 63.465C202.934 63.283 202.984 63.0803 203.057 62.8469C203.179 62.4548 203.296 62.0508 203.408 61.5906C203.52 61.1324 203.64 60.6064 203.721 60.2333C203.765 60.0299 203.84 59.8221 203.909 59.6283C204.007 59.3558 204.094 59.1113 204.073 58.9467C204.066 58.8942 204.046 58.8407 204.027 58.7888C204.013 58.7517 204 58.7152 203.992 58.6805C204.014 58.5967 204.035 58.5129 204.057 58.4291C204.123 58.2857 204.208 58.0594 204.215 57.8253C204.238 57.7389 204.26 57.6525 204.282 57.569C204.33 57.3869 204.377 57.2087 204.424 57.0289C204.44 56.9703 204.455 56.911 204.471 56.8516C204.471 56.851 204.471 56.8505 204.472 56.8499C204.503 56.7304 204.535 56.6099 204.566 56.4914C204.58 56.4407 204.593 56.39 204.607 56.3392C204.641 56.2103 204.675 56.0804 204.709 55.9528C204.727 55.8853 204.746 55.8171 204.764 55.7488C204.793 55.638 204.823 55.5263 204.853 55.4153C204.901 55.2357 204.949 55.057 204.997 54.8779C205.005 54.8486 205.016 54.8213 205.03 54.8022C205.043 54.7831 205.056 54.7735 205.068 54.7759C205.079 54.7783 205.088 54.7924 205.093 54.8152C205.097 54.838 205.097 54.8677 205.093 54.8977C205.067 55.0814 205.041 55.2648 205.015 55.449C204.999 55.5628 204.982 55.6771 204.966 55.7907C204.956 55.8607 204.946 55.9304 204.936 55.9997C204.918 56.1304 204.898 56.2636 204.879 56.3956C204.872 56.4475 204.864 56.4995 204.857 56.5514C204.839 56.6731 204.821 56.7967 204.803 56.9194C204.803 56.9201 204.803 56.9209 204.803 56.9216C204.794 56.982 204.786 57.0422 204.777 57.1019C204.75 57.2859 204.724 57.4683 204.696 57.6546C204.682 57.7509 204.667 57.8512 204.652 57.9508C204.644 58.0062 204.636 58.0616 204.628 58.1159C204.624 58.1456 204.619 58.1757 204.615 58.206C204.512 58.9007 204.408 59.5902 204.302 60.2858C204.197 60.9789 204.09 61.6728 203.982 62.3645C203.873 63.0578 203.764 63.7496 203.653 64.4418C202.95 68.8345 202.211 73.2379 201.416 77.6319C201.302 78.2587 201.184 78.9014 201.068 79.5289C200.951 80.1633 200.835 80.7843 200.714 81.4197C200.677 81.6128 200.64 81.8106 200.601 82.0135Z" fill="black"/>
<path d="M29.2461 81.5323C29.7006 83.1928 29.9413 84.8422 30.378 86.5134C30.9202 88.5883 31.6421 90.6516 32.1542 92.7396C32.6632 94.8155 33.1609 96.905 33.6463 98.9907C34.1323 101.079 34.6069 103.167 35.0753 105.26C35.5426 107.35 36.0039 109.445 36.4604 111.539C36.7705 112.961 37.0791 114.386 37.3866 115.808C37.5216 116.433 37.656 117.056 37.7907 117.68C37.8911 118.146 37.9916 118.612 38.092 119.077C38.1059 119.142 38.1105 119.206 38.1042 119.256C38.0979 119.306 38.0812 119.338 38.0572 119.344C38.033 119.35 38.003 119.331 37.973 119.29C37.9431 119.25 37.9157 119.191 37.8962 119.128C37.7554 118.668 37.6146 118.209 37.4737 117.75C37.3173 117.239 37.1611 116.73 37.0049 116.22C37.0824 116.113 37.1282 115.982 37.1067 115.765C37.0957 115.654 37.0621 115.496 37.0138 115.387C36.9704 115.288 36.9208 115.219 36.8735 115.152C36.8241 115.083 36.7772 115.017 36.7428 114.926C36.6845 114.771 36.6029 114.631 36.5173 114.483C36.4861 114.429 36.4543 114.375 36.423 114.318C36.2741 113.831 36.1254 113.344 35.9769 112.857C35.9377 112.664 35.9005 112.487 35.8577 112.34C35.8193 112.208 35.7665 112.091 35.7088 111.977C35.6859 111.901 35.6629 111.826 35.64 111.751C35.4919 111.264 35.3441 110.777 35.1965 110.29C35.1224 109.899 35.0428 109.49 34.9172 108.964C34.8631 108.737 34.8191 108.511 34.7769 108.293C34.7145 107.972 34.6557 107.67 34.5734 107.413C34.5184 107.242 34.4844 107.055 34.4505 106.869C34.4051 106.619 34.3598 106.369 34.2638 106.157C34.2034 106.024 34.1409 105.904 34.0829 105.792C33.9906 105.615 33.91 105.46 33.8684 105.311C33.7902 105.032 33.6954 104.797 33.6119 104.59C33.5114 104.341 33.4271 104.133 33.4074 103.935C33.4045 103.905 33.4019 103.871 33.3991 103.832C33.3842 103.627 33.3604 103.3 33.2114 102.86C33.1583 102.704 33.0897 102.561 33.0224 102.422C32.9244 102.219 32.8293 102.023 32.7894 101.796C32.7834 101.762 32.7858 101.724 32.7879 101.69C32.7906 101.646 32.793 101.608 32.7775 101.59C32.7322 101.537 32.6743 101.449 32.6114 101.353C32.5652 101.283 32.5162 101.208 32.4675 101.14C32.3005 100.569 32.1342 99.9969 31.9687 99.4247C31.8928 99.1626 31.8171 98.9004 31.7416 98.638C31.7507 98.4913 31.7545 98.3427 31.7466 98.189C31.7363 97.988 31.6837 97.7376 31.6161 97.4149C31.5663 97.1774 31.5083 96.9006 31.4528 96.5754C31.3501 95.9734 31.1804 95.3718 31.0517 94.9915C31.0244 94.911 30.9967 94.8303 30.9669 94.744C30.8539 94.4165 30.7128 94.0078 30.4704 93.225C30.241 92.4845 30.0657 91.8495 29.934 91.3726C29.8668 91.1291 29.811 90.9267 29.7651 90.7725C29.6866 90.5086 29.5931 90.1837 29.4994 89.8576C29.3526 89.3472 29.205 88.8336 29.1119 88.5453C29.0788 88.4427 29.0429 88.3353 29.0042 88.2193C28.8971 87.8978 28.7677 87.5095 28.6102 86.9689C28.4449 86.4013 28.363 86.0442 28.2902 85.67C28.2605 85.5179 28.2637 85.3761 28.267 85.2299C28.2717 85.0226 28.2767 84.8062 28.1883 84.5384C28.1677 84.4759 28.141 84.4104 28.113 84.3419C28.0616 84.2162 28.006 84.0801 27.9765 83.9337C27.9662 83.8826 27.9648 83.8356 27.9635 83.7895C27.962 83.7388 27.9605 83.6891 27.9472 83.6359C27.8976 83.4369 27.8445 83.2446 27.7974 83.0737C27.7366 82.8533 27.6857 82.6685 27.6645 82.5511C27.6268 82.3418 27.5539 82.1212 27.4799 81.8978C27.4235 81.7272 27.3663 81.5549 27.324 81.3847C27.2032 80.8982 27.0016 80.2385 26.7766 79.5632C26.6915 79.3077 26.6573 79.0814 26.6135 78.7913C26.5863 78.6108 26.5555 78.4057 26.5062 78.1536C26.4783 78.0107 26.4263 77.8971 26.3782 77.7918C26.3339 77.6949 26.2929 77.605 26.2769 77.506C26.2628 77.4186 26.2837 77.3555 26.3036 77.2956C26.3257 77.2289 26.3465 77.1661 26.3163 77.0782C26.3002 77.0314 26.2675 76.978 26.2286 76.9144C26.2132 76.8892 26.1969 76.8623 26.1802 76.8338C26.1877 76.8335 26.1941 76.8322 26.199 76.831C26.233 76.8222 26.2269 76.726 26.221 76.6316C26.2186 76.5939 26.2162 76.5563 26.2164 76.5249C26.2172 76.4094 26.1685 76.2037 26.1263 76.0478C26.1084 75.9819 26.1033 75.9192 26.0973 75.8461C26.092 75.7812 26.086 75.708 26.0699 75.617C26.0607 75.565 26.0603 75.5234 26.0601 75.4889C26.0599 75.464 26.0598 75.4428 26.0563 75.424C26.0533 75.4077 26.0401 75.3973 26.0254 75.3857C26.0148 75.3773 26.0032 75.3682 25.994 75.3558C25.9719 75.326 25.9567 75.2842 25.9532 75.2531C25.9515 75.2387 25.9524 75.2267 25.9534 75.2149C25.9544 75.201 25.9556 75.1873 25.9526 75.1695C25.9388 75.0879 25.9074 75.0133 25.8748 74.9358C25.839 74.8506 25.8017 74.7617 25.7846 74.6563C25.7792 74.6231 25.7773 74.5868 25.7755 74.5517C25.7736 74.5149 25.7717 74.4791 25.766 74.4498C25.7429 74.3307 25.6898 74.2269 25.6409 74.1315C25.6084 74.068 25.5778 74.0081 25.5592 73.9499C25.525 73.8433 25.4807 73.7929 25.4479 73.7557C25.431 73.7364 25.4171 73.7207 25.4093 73.7025C25.4056 73.6849 25.4019 73.667 25.3985 73.6494C25.3965 73.633 25.3944 73.616 25.3897 73.6009C25.3893 73.5997 25.3889 73.5986 25.3885 73.5975C25.3703 73.4989 25.3555 73.4012 25.3408 73.3042C25.3078 73.0863 25.2753 72.871 25.2048 72.6529C25.1897 72.6058 25.1649 72.5604 25.1397 72.5141C25.1089 72.4575 25.0773 72.3995 25.0619 72.336C25.0252 72.1849 25.0053 72.0278 24.9858 71.873C24.9564 71.6403 24.9276 71.4128 24.8432 71.2189C24.8153 71.1549 24.7809 71.0943 24.7463 71.0336C24.7271 70.9998 24.7077 70.9658 24.6894 70.9311C24.7074 70.9348 24.7235 70.935 24.7385 70.9353C24.7694 70.9357 24.7958 70.9362 24.826 70.9661C24.8974 71.0369 24.9904 71.114 25.0373 71.0905C25.05 71.0841 25.0656 71.0825 25.0814 71.0811C25.121 71.0775 25.1614 71.0738 25.1586 70.9915C25.1567 70.936 25.1486 70.7942 25.0972 70.7161C25.086 70.6991 25.0705 70.6911 25.0533 70.6821C25.0223 70.6659 24.9856 70.6466 24.9575 70.5672C24.9528 70.5539 24.9478 70.5393 24.9428 70.5242C24.9229 70.4639 24.9007 70.3965 24.8739 70.3761C24.843 70.3526 24.8181 70.3659 24.7891 70.3813C24.7513 70.4014 24.7064 70.4253 24.6321 70.3768C24.6174 70.3672 24.6072 70.3442 24.5995 70.3268C24.5941 70.3146 24.5898 70.3052 24.5862 70.3051C24.5819 70.3051 24.5748 70.3113 24.5658 70.3192C24.534 70.3471 24.4784 70.3957 24.4408 70.2634C24.4307 70.2276 24.423 70.1856 24.4161 70.148C24.4059 70.0925 24.3974 70.0465 24.3854 70.0432C24.3808 70.042 24.3761 70.0415 24.3713 70.0413C24.3612 69.9977 24.3512 69.954 24.3411 69.9104C24.339 69.8516 24.3176 69.7739 24.2907 69.6769C24.2842 69.6534 24.2774 69.6286 24.2705 69.6027C24.2507 69.5166 24.2309 69.4305 24.2112 69.3443C24.1988 69.2752 24.1885 69.2008 24.1823 69.1211C24.1698 68.9615 24.1803 68.817 24.1906 68.6758C24.195 68.6163 24.1993 68.5573 24.2018 68.498C24.2095 68.5188 24.217 68.5375 24.2242 68.5515C24.2739 68.6471 24.33 68.676 24.3817 68.7026C24.416 68.7203 24.4484 68.737 24.4755 68.7716C24.5252 68.8349 24.5596 68.8183 24.585 68.806C24.5982 68.7996 24.6091 68.7946 24.6183 68.8023C24.6258 68.8086 24.6329 68.8256 24.6404 68.8432C24.6468 68.8585 24.6535 68.8743 24.6606 68.8837C24.7471 68.9976 24.7679 68.9511 24.7981 68.8835C24.8148 68.8463 24.8344 68.8027 24.8695 68.7758C24.9075 68.7508 24.9209 68.7523 24.955 68.8149C24.962 68.7574 24.9689 68.6999 24.9759 68.6423C24.9692 68.6222 24.9523 68.6101 24.9252 68.5939C24.8768 68.5649 24.8297 68.4418 24.7928 68.3455C24.7758 68.301 24.7609 68.2622 24.7492 68.2412C24.6867 68.1295 24.6524 68.1757 24.6223 68.2164C24.6057 68.2388 24.5903 68.2594 24.5722 68.2512C24.5644 68.2477 24.56 68.2567 24.5555 68.2659C24.552 68.2729 24.5484 68.2802 24.5433 68.2818C24.5057 68.2933 24.4589 68.2298 24.4155 68.1708C24.3906 68.1371 24.3669 68.1049 24.3465 68.089C24.3403 68.0842 24.3343 68.0806 24.3286 68.0773C24.3202 68.0724 24.3121 68.0677 24.304 68.0591C24.2856 68.0394 24.2649 67.9944 24.2422 67.9451C24.2306 67.9199 24.2185 67.8935 24.2059 67.8688C24.1896 67.8369 24.1714 67.8286 24.1523 67.8198C24.1388 67.8136 24.1249 67.807 24.1109 67.7919C24.0855 67.7646 24.0626 67.7021 24.0413 67.644C24.0321 67.6187 24.023 67.5943 24.0143 67.574C24.0108 67.5657 24.0071 67.5623 24.0033 67.5623C23.9659 67.4677 23.9293 67.3775 23.8936 67.2898C23.7148 66.85 23.56 66.4693 23.4435 65.8707C23.4215 65.7576 23.3888 65.6384 23.3516 65.5191C23.2654 65.1289 23.1797 64.7383 23.0945 64.3479C23.1087 64.2625 23.113 64.1614 23.1067 64.0448C23.0947 63.8258 23.0478 63.6096 22.9925 63.3544C22.9516 63.1657 22.9061 62.9558 22.8666 62.7075C22.8003 62.2905 22.725 61.8642 22.6194 61.3885C22.5142 60.915 22.3867 60.3746 22.292 59.9936C22.2403 59.7858 22.214 59.5603 22.1895 59.3501C22.1551 59.0545 22.1241 58.7892 22.0311 58.6466C22.0014 58.6011 21.9599 58.5604 21.9195 58.5208C21.8907 58.4926 21.8626 58.4648 21.8396 58.4363C21.8216 58.3491 21.8036 58.2619 21.7856 58.1746C21.7804 58.0126 21.7555 57.7653 21.6567 57.5458C21.6383 57.4558 21.6198 57.3657 21.6022 57.2787C21.5634 57.0889 21.5257 56.9032 21.4877 56.7158C21.4753 56.6546 21.4628 56.5928 21.4503 56.5308C21.4502 56.5302 21.4501 56.5297 21.45 56.5291C21.4247 56.4044 21.3993 56.2787 21.3745 56.1552C21.3638 56.1022 21.3532 56.0493 21.3425 55.9964C21.3154 55.8618 21.2881 55.7264 21.2615 55.5931C21.2474 55.5226 21.2331 55.4515 21.2189 55.3802C21.1958 55.2645 21.1725 55.1479 21.1494 55.032C21.112 54.8444 21.075 54.6577 21.0379 54.4706C21.0319 54.44 21.0301 54.4096 21.0333 54.386C21.0365 54.3624 21.0444 54.3476 21.0557 54.3446C21.0671 54.3417 21.0813 54.3509 21.0956 54.37C21.1099 54.389 21.1231 54.4165 21.1328 54.4461C21.1918 54.6276 21.2507 54.8088 21.3096 54.9909C21.3461 55.1034 21.3827 55.2164 21.419 55.3286C21.4414 55.3978 21.4636 55.4668 21.4858 55.5353C21.5276 55.6645 21.57 55.7963 21.612 55.9269C21.6286 55.9783 21.6451 56.0297 21.6617 56.0811C21.7004 56.2014 21.7396 56.3238 21.7786 56.4452C21.7788 56.446 21.779 56.4467 21.7793 56.4474C21.7984 56.5072 21.8176 56.5669 21.8365 56.6259C21.8948 56.8081 21.9527 56.9886 22.0114 57.1733C22.042 57.2686 22.0735 57.368 22.1049 57.4667C22.1224 57.5217 22.1399 57.5765 22.157 57.6303C22.1664 57.6598 22.1758 57.6896 22.1853 57.7196C22.4041 58.4081 22.6202 59.092 22.8366 59.7828C23.0523 60.4709 23.267 61.1606 23.4798 61.8486C23.6931 62.5382 23.9047 63.227 24.1153 63.9167C25.4518 68.2935 26.7606 72.6965 28.0149 77.1158C28.1938 77.7462 28.3759 78.3934 28.5526 79.0256C28.7312 79.6648 28.9052 80.2911 29.0816 80.9327C29.1353 81.1275 29.1901 81.3273 29.2461 81.5323Z" fill="black"/>
<path d="M117.633 203.086C119.98 203.086 121.633 204.784 121.633 206.586C121.633 208.388 119.98 210.086 117.633 210.086C115.286 210.086 113.633 208.388 113.633 206.586C113.633 204.784 115.286 203.086 117.633 203.086Z" fill="#D9D9D9" stroke="black" stroke-width="3"/>
<path d="M127.423 206.422C127.412 206.422 127.401 206.422 127.066 206.551C126.731 206.679 126.073 206.936 125.544 207.096C125.015 207.256 124.635 207.312 124.15 207.351C123.664 207.391 123.084 207.414 122.768 207.414C122.453 207.414 122.419 207.392 122.385 207.369" stroke="black" stroke-width="2" stroke-linecap="round"/>
<defs>
<filter id="filter0_d_1_5" x="103.134" y="207.023" width="15.9973" height="126.127" filterUnits="userSpaceOnUse" color-interpolation-filters="sRGB">
<feFlood flood-opacity="0" result="BackgroundImageFix"/>
<feColorMatrix in="SourceAlpha" type="matrix" values="0 0 0 0 0 0 0 0 0 0 0 0 0 0 0 0 0 0 127 0" result="hardAlpha"/>
<feOffset dy="4"/>
<feGaussianBlur stdDeviation="2"/>
<feComposite in2="hardAlpha" operator="out"/>
<feColorMatrix type="matrix" values="0 0 0 0 0 0 0 0 0 0 0 0 0 0 0 0 0 0 0.25 0"/>
<feBlend mode="normal" in2="BackgroundImageFix" result="effect1_dropShadow_1_5"/>
<feBlend mode="normal" in="SourceGraphic" in2="effect1_dropShadow_1_5" result="shape"/>
</filter>
</defs>
</svg>
